<?xml version="1.0" encoding="UTF-8" standalone="no"?>
<!-- Generator: Adobe Illustrator 16.0.0, SVG Export Plug-In . SVG Version: 6.00 Build 0)  -->

<svg
   xmlns:dc="http://purl.org/dc/elements/1.1/"
   xmlns:cc="http://creativecommons.org/ns#"
   xmlns:rdf="http://www.w3.org/1999/02/22-rdf-syntax-ns#"
   xmlns:svg="http://www.w3.org/2000/svg"
   xmlns="http://www.w3.org/2000/svg"
   xmlns:xlink="http://www.w3.org/1999/xlink"
   xmlns:sodipodi="http://sodipodi.sourceforge.net/DTD/sodipodi-0.dtd"
   xmlns:inkscape="http://www.inkscape.org/namespaces/inkscape"
   version="1.1"
   id="Capa_1"
   x="0px"
   y="0px"
   width="35px"
   height="35px"
   viewBox="0 0 35 35"
   style="enable-background:new 0 0 35 35;"
   xml:space="preserve"
   sodipodi:docname="mobile1.svg"
   inkscape:version="0.92.3 (2405546, 2018-03-11)"><metadata
   id="metadata3874"><rdf:RDF><cc:Work
       rdf:about=""><dc:format>image/svg+xml</dc:format><dc:type
         rdf:resource="http://purl.org/dc/dcmitype/StillImage" /><dc:title></dc:title></cc:Work></rdf:RDF></metadata><defs
   id="defs3872"><clipPath
     clipPathUnits="userSpaceOnUse"
     id="clipPath3901"><use
       x="0"
       y="0"
       xlink:href="#g3897"
       id="use3903"
       width="100%"
       height="100%" /></clipPath></defs><sodipodi:namedview
   pagecolor="#ffffff"
   bordercolor="#666666"
   borderopacity="1"
   objecttolerance="10"
   gridtolerance="10"
   guidetolerance="10"
   inkscape:pageopacity="0"
   inkscape:pageshadow="2"
   inkscape:window-width="1309"
   inkscape:window-height="713"
   id="namedview3870"
   showgrid="false"
   inkscape:zoom="15.2"
   inkscape:cx="17.5"
   inkscape:cy="17.5"
   inkscape:window-x="57"
   inkscape:window-y="27"
   inkscape:window-maximized="1"
   inkscape:current-layer="Capa_1" />
<g
   id="g3899"
   clip-path="url(#clipPath3901)"><g
     inkscape:label="Clip"
     id="g3897"><g
       transform="matrix(0.86228605,0,0,0.86228605,1.0099939,4.8199865)"
       id="g3837">
	<path
   inkscape:connector-curvature="0"
   id="path3835"
   d="M 25.302,0 H 9.698 C 8.398,0 7.334,1.063 7.334,2.364 V 32.635 C 7.334,33.936 8.398,35 9.698,35 h 15.604 c 1.3,0 2.364,-1.062 2.364,-2.364 V 2.364 C 27.666,1.063 26.602,0 25.302,0 Z M 15.004,1.704 h 4.992 c 0.158,0 0.286,0.128 0.286,0.287 0,0.158 -0.128,0.286 -0.286,0.286 h -4.992 c -0.158,0 -0.286,-0.128 -0.286,-0.286 0,-0.159 0.128,-0.287 0.286,-0.287 z M 17.5,33.818 c -0.653,0 -1.182,-0.529 -1.182,-1.183 0,-0.654 0.529,-1.182 1.182,-1.182 0.653,0 1.182,0.528 1.182,1.182 0,0.654 -0.529,1.183 -1.182,1.183 z m 8.521,-3.193 H 8.979 V 3.749 h 17.042 z" />
</g></g></g>
<g
   id="g3839">
</g>
<g
   id="g3841">
</g>
<g
   id="g3843">
</g>
<g
   id="g3845">
</g>
<g
   id="g3847">
</g>
<g
   id="g3849">
</g>
<g
   id="g3851">
</g>
<g
   id="g3853">
</g>
<g
   id="g3855">
</g>
<g
   id="g3857">
</g>
<g
   id="g3859">
</g>
<g
   id="g3861">
</g>
<g
   id="g3863">
</g>
<g
   id="g3865">
</g>
<g
   id="g3867">
</g>
</svg>