<?xml version="1.0" encoding="utf-8"?>
<!-- Generator: Adobe Illustrator 23.0.0, SVG Export Plug-In . SVG Version: 6.00 Build 0)  -->
<svg version="1.1" id="Capa_1" xmlns="http://www.w3.org/2000/svg" xmlns:xlink="http://www.w3.org/1999/xlink" x="0px" y="0px"
	 viewBox="0 0 60 60" style="enable-background:new 0 0 60 60;" xml:space="preserve">
<style type="text/css">
	.st0{fill:#FFFFFF;}
</style>
<path class="st0" d="M55.8,8H4.2C1.9,8,0,9.9,0,12.2v35.6C0,50.1,1.9,52,4.2,52h51.6c2.3,0,4.2-1.9,4.2-4.2V12.2
	C60,9.9,58.1,8,55.8,8z M58,47.8c0,1.2-1,2.2-2.2,2.2H4.2C3,50,2,49,2,47.8V12.2C2,11,3,10,4.2,10h51.6c1.2,0,2.2,1,2.2,2.2V47.8z"
	/>
<path class="st0" d="M22.6,36.2L19,34.4V34c1.6-0.9,2.8-2.4,3.4-4.4c1-0.5,1.6-1.5,1.6-2.6v-1c0-0.9-0.4-1.8-1.2-2.3
	C22.2,19.9,19.6,18,15,18c-0.2,0-0.4,0-0.6,0c-1.2,0.1-2.4-0.2-3.2-0.7c-0.4-0.3-0.7-0.5-0.9-0.8c-0.4-0.6-1.4-0.6-1.8-0.1
	C8.2,16.6,8,17,8.1,17.3c0,0.4,0.1,0.8,0.2,1.3c0.2,1,0.2,1-0.1,1.6C8.1,20.4,8,20.7,7.8,21c-0.3,0.9-0.6,1.7-0.7,2.6
	C6.4,24.2,6,25.1,6,26v1c0,1.1,0.6,2.1,1.6,2.6c0.6,2,1.8,3.5,3.4,4.4v0.4l-3.8,1.9C5.9,37,5,38.4,5,40v1.3C5,42.1,5,44,15,44
	s10-1.9,10-2.7v-1.2C25,38.5,24.1,37,22.6,36.2z M30,23h10c0.6,0,1-0.4,1-1s-0.4-1-1-1H30c-0.6,0-1,0.4-1,1S29.4,23,30,23z M44,23h1
	c0.6,0,1-0.4,1-1s-0.4-1-1-1h-1c-0.6,0-1,0.4-1,1S43.4,23,44,23z M31,38h-1c-0.6,0-1,0.4-1,1s0.4,1,1,1h1c0.6,0,1-0.4,1-1
	S31.6,38,31,38z M37,38h-2c-0.6,0-1,0.4-1,1s0.4,1,1,1h2c0.6,0,1-0.4,1-1S37.6,38,37,38z M42,38h-1c-0.6,0-1,0.4-1,1s0.4,1,1,1h1
	c0.6,0,1-0.4,1-1S42.6,38,42,38z M48,38h-2c-0.6,0-1,0.4-1,1s0.4,1,1,1h2c0.6,0,1-0.4,1-1S48.6,38,48,38z M51.3,38.3
	C51.1,38.5,51,38.7,51,39s0.1,0.5,0.3,0.7c0.2,0.2,0.5,0.3,0.7,0.3s0.5-0.1,0.7-0.3c0.2-0.2,0.3-0.5,0.3-0.7s-0.1-0.5-0.3-0.7
	C52.3,37.9,51.7,37.9,51.3,38.3z M52,27H30c-0.6,0-1,0.4-1,1s0.4,1,1,1h22c0.6,0,1-0.4,1-1S52.6,27,52,27z M52,33H30
	c-0.6,0-1,0.4-1,1s0.4,1,1,1h22c0.6,0,1-0.4,1-1S52.6,33,52,33z"/>
</svg>
