<?xml version="1.0" encoding="iso-8859-1"?>
<!-- Generator: Adobe Illustrator 19.0.0, SVG Export Plug-In . SVG Version: 6.00 Build 0)  -->
<svg version="1.1" id="Capa_1" xmlns="http://www.w3.org/2000/svg" xmlns:xlink="http://www.w3.org/1999/xlink" x="0px" y="0px"
	 viewBox="0 0 512 512" style="enable-background:new 0 0 512 512;" xml:space="preserve">
<g>
	<g>
		<g>
			<path d="M477.867,213.333H297.804C293.749,193.468,276.275,179.2,256,179.2c-20.275,0-37.749,14.268-41.804,34.133H34.133
				C15.29,213.352,0.019,228.623,0,247.467V435.2c0.019,18.844,15.29,34.115,34.133,34.133h443.733
				c18.844-0.019,34.115-15.29,34.133-34.133V247.467C511.981,228.623,496.71,213.352,477.867,213.333z M256,196.267
				c10.813,0.033,20.435,6.868,24.028,17.067h-48.055C235.565,203.134,245.187,196.3,256,196.267z M494.933,435.2
				c-0.012,9.421-7.646,17.054-17.067,17.067H34.133c-9.421-0.012-17.054-7.646-17.067-17.067V247.467
				c0.012-9.421,7.646-17.054,17.067-17.067h443.733c9.421,0.012,17.054,7.646,17.067,17.067V435.2z"/>
			<path d="M76.8,298.667h17.067c9.421-0.012,17.054-7.646,17.067-17.067v-17.067c-0.012-9.421-7.646-17.054-17.067-17.067H76.8
				c-9.421,0.012-17.054,7.646-17.067,17.067V281.6C59.746,291.021,67.379,298.654,76.8,298.667z M76.8,264.533h17.067l0.017,17.067
				H76.8V264.533z"/>
			<path d="M145.067,298.667h17.067c9.421-0.012,17.054-7.646,17.067-17.067v-17.067c-0.012-9.421-7.646-17.054-17.067-17.067
				h-17.067c-9.421,0.012-17.054,7.646-17.067,17.067V281.6C128.012,291.021,135.646,298.654,145.067,298.667z M145.067,264.533
				h17.067l0.017,17.067h-17.084V264.533z"/>
			<path d="M213.333,298.667H230.4c9.421-0.012,17.054-7.646,17.067-17.067v-17.067c-0.012-9.421-7.646-17.054-17.067-17.067
				h-17.067c-9.421,0.012-17.054,7.646-17.067,17.067V281.6C196.279,291.021,203.913,298.654,213.333,298.667z M213.333,264.533
				H230.4l0.017,17.067h-17.084V264.533z"/>
			<path d="M281.6,298.667h17.067c9.421-0.012,17.054-7.646,17.067-17.067v-17.067c-0.012-9.421-7.646-17.054-17.067-17.067H281.6
				c-9.421,0.012-17.054,7.646-17.067,17.067V281.6C264.546,291.021,272.179,298.654,281.6,298.667z M281.6,264.533h17.067
				l0.017,17.067H281.6V264.533z"/>
			<path d="M349.867,298.667h17.067c9.421-0.012,17.054-7.646,17.067-17.067v-17.067c-0.012-9.421-7.646-17.054-17.067-17.067
				h-17.067c-9.421,0.012-17.055,7.646-17.067,17.067V281.6C332.812,291.021,340.446,298.654,349.867,298.667z M349.867,264.533
				h17.067l0.017,17.067h-17.084V264.533z"/>
			<path d="M435.2,247.467h-17.067c-9.421,0.012-17.054,7.646-17.067,17.067V281.6c0.012,9.421,7.646,17.054,17.067,17.067H435.2
				c9.421-0.012,17.054-7.646,17.067-17.067v-17.067C452.254,255.113,444.621,247.479,435.2,247.467z M418.133,281.6v-17.067H435.2
				l0.017,17.067H418.133z"/>
			<path d="M93.867,384H76.8c-9.421,0.012-17.054,7.646-17.067,17.067v17.067c0.012,9.421,7.646,17.054,17.067,17.067h17.067
				c9.421-0.012,17.054-7.646,17.067-17.067v-17.067C110.921,391.646,103.287,384.012,93.867,384z M76.8,418.133v-17.067h17.067
				l0.017,17.067H76.8z"/>
			<path d="M366.933,384H145.067c-9.421,0.012-17.054,7.646-17.067,17.067v17.067c0.012,9.421,7.646,17.054,17.067,17.067h221.867
				c9.421-0.012,17.054-7.646,17.067-17.067v-17.067C383.988,391.646,376.354,384.012,366.933,384z M145.067,418.133v-17.067
				h221.867l0.017,17.067H145.067z"/>
			<path d="M435.2,384h-17.067c-9.421,0.012-17.054,7.646-17.067,17.067v17.067c0.012,9.421,7.646,17.054,17.067,17.067H435.2
				c9.421-0.012,17.054-7.646,17.067-17.067v-17.067C452.254,391.646,444.621,384.012,435.2,384z M418.133,418.133v-17.067H435.2
				l0.017,17.067H418.133z"/>
			<path d="M145.067,349.867V332.8c-0.012-9.421-7.646-17.054-17.067-17.067h-17.067c-9.421,0.012-17.054,7.646-17.067,17.067
				v17.067c0.012,9.421,7.646,17.054,17.067,17.067H128C137.421,366.921,145.054,359.287,145.067,349.867z M110.933,332.8H128
				l0.017,17.067h-17.084V332.8z"/>
			<path d="M162.133,332.8v17.067c0.012,9.421,7.646,17.054,17.067,17.067h17.067c9.421-0.012,17.054-7.646,17.067-17.067V332.8
				c-0.012-9.421-7.646-17.054-17.067-17.067H179.2C169.779,315.746,162.146,323.379,162.133,332.8z M196.284,349.867H179.2V332.8
				h17.067L196.284,349.867z"/>
			<path d="M230.4,332.8v17.067c0.012,9.421,7.646,17.054,17.067,17.067h17.067c9.421-0.012,17.055-7.646,17.067-17.067V332.8
				c-0.012-9.421-7.646-17.054-17.067-17.067h-17.067C238.046,315.746,230.412,323.379,230.4,332.8z M264.55,349.867h-17.084V332.8
				h17.067L264.55,349.867z"/>
			<path d="M298.667,332.8v17.067c0.012,9.421,7.646,17.054,17.067,17.067H332.8c9.421-0.012,17.055-7.646,17.067-17.067V332.8
				c-0.012-9.421-7.646-17.054-17.067-17.067h-17.067C306.313,315.746,298.679,323.379,298.667,332.8z M332.817,349.867h-17.084
				V332.8H332.8L332.817,349.867z"/>
			<path d="M418.133,349.867V332.8c-0.012-9.421-7.646-17.054-17.067-17.067H384c-9.421,0.012-17.054,7.646-17.067,17.067v17.067
				c0.012,9.421,7.646,17.054,17.067,17.067h17.067C410.487,366.921,418.121,359.287,418.133,349.867z M384,332.8h17.067
				l0.017,17.067H384V332.8z"/>
			<path d="M175.084,82.441c49.696-30.278,112.137-30.278,161.833,0c1.337,0.819,2.874,1.252,4.441,1.25
				c3.825,0.005,7.186-2.537,8.224-6.219c1.038-3.682-0.501-7.604-3.766-9.598c-55.161-33.611-124.472-33.611-179.633,0
				c-4.002,2.467-5.255,7.705-2.804,11.716C165.83,83.602,171.063,84.876,175.084,82.441z"/>
			<path d="M286.975,133.508c4.14,0,7.684-2.971,8.404-7.048c0.721-4.077-1.589-8.083-5.479-9.502
				c-21.904-7.933-45.896-7.933-67.8,0c-4.427,1.615-6.707,6.514-5.092,10.942c1.615,4.427,6.514,6.707,10.942,5.092
				c18.124-6.567,37.977-6.567,56.1,0C284.987,133.333,285.977,133.508,286.975,133.508z"/>
			<path d="M314.575,108.183c3.936,0.003,7.363-2.685,8.297-6.509c0.934-3.823-0.869-7.789-4.363-9.6
				c-39.189-20.344-85.828-20.344-125.017,0c-2.716,1.397-4.479,4.139-4.621,7.19s1.358,5.945,3.932,7.589
				c2.575,1.643,5.831,1.785,8.539,0.371c34.289-17.7,75.027-17.7,109.317,0C311.868,107.853,313.212,108.182,314.575,108.183z"/>
			<path d="M249.941,147.541c-0.754,0.829-1.36,1.782-1.792,2.817c-0.437,1.026-0.669,2.127-0.683,3.242
				c-0.031,1.119,0.203,2.23,0.683,3.242c0.434,1.034,1.04,1.986,1.792,2.817c0.829,0.754,1.782,1.36,2.817,1.792
				c3.155,1.29,6.775,0.586,9.217-1.792c0.805-0.806,1.442-1.763,1.875-2.817c1.307-3.195,0.568-6.862-1.875-9.3
				C258.586,144.383,253.331,144.383,249.941,147.541z"/>
		</g>
	</g>
</g>
<g>
</g>
<g>
</g>
<g>
</g>
<g>
</g>
<g>
</g>
<g>
</g>
<g>
</g>
<g>
</g>
<g>
</g>
<g>
</g>
<g>
</g>
<g>
</g>
<g>
</g>
<g>
</g>
<g>
</g>
</svg>
