<svg xmlns="http://www.w3.org/2000/svg" viewBox="0 0 60 60"><circle cx="9" cy="15" r="1"/><circle cx="15" cy="15" r="1"/><circle cx="12" cy="12" r="1"/><circle cx="21" cy="15" r="1"/><circle cx="9" cy="9" r="1"/><circle cx="15" cy="9" r="1"/><circle cx="21" cy="9" r="1"/><circle cx="18" cy="12" r="1"/><circle cx="9" cy="21" r="1"/><circle cx="15" cy="21" r="1"/><circle cx="12" cy="18" r="1"/><circle cx="21" cy="21" r="1"/><circle cx="18" cy="18" r="1"/><circle cx="24" cy="12" r="1"/><circle cx="24" cy="18" r="1"/><circle cx="24" cy="24" r="1"/><circle cx="9" cy="27" r="1"/><circle cx="15" cy="27" r="1"/><circle cx="12" cy="24" r="1"/><circle cx="21" cy="27" r="1"/><circle cx="27" cy="15" r="1"/><circle cx="27" cy="9" r="1"/><circle cx="27" cy="21" r="1"/><circle cx="30" cy="12" r="1"/><circle cx="30" cy="18" r="1"/><circle cx="30" cy="24" r="1"/><circle cx="27" cy="27" r="1"/><circle cx="33" cy="15" r="1"/><circle cx="33" cy="9" r="1"/><circle cx="33" cy="21" r="1"/><circle cx="33" cy="27" r="1"/><circle cx="18" cy="24" r="1"/><circle cx="24" cy="30" r="1"/><circle cx="9" cy="33" r="1"/><circle cx="15" cy="33" r="1"/><circle cx="12" cy="30" r="1"/><circle cx="21" cy="33" r="1"/><circle cx="30" cy="30" r="1"/><circle cx="27" cy="33" r="1"/><circle cx="33" cy="33" r="1"/><circle cx="18" cy="30" r="1"/><path d="M60 26v-8h-8v3H39V8h3V0h-8v3H8V0H0v8h3v26H0v8h8v-3h13v13h-3v8h8v-3h26v3h8v-8h-3V26h3zm-6-6h4v4h-4v-4zM36 2h4v4h-4V2zM2 6V2h4v4H2zm4 34H2v-4h4v4zm2-3v-3H5V8h3V5h26v3h3v26h-3v3H8zm28 2v-3h4v4h-4v-1zM24 58h-4v-4h4v4zm34-4v4h-4v-4h4zm-3-2h-3v3H26v-3h-3V39h11v3h8v-8h-3V23h13v3h3v26z"/></svg>